<?xml version="1.0" encoding="UTF-8"?>
<svg width="500mm" height="500mm" version="1.1" viewBox="0 0 500 500" xmlns="http://www.w3.org/2000/svg"><path d="m152.58 21.167a15 15 0 0 0-15 15v425.08a15 15 0 0 0 15 15h181.67a15 15 0 0 0 15-15v-425.08a15 15 0 0 0-15-15h-181.67zm-4.4168 26.458h190.5v396.88h-190.5v-396.88z" fill-opacity=".92145"/><path d="m200.79 39.688h80.99a3.9688 3.9688 135 0 0 3.9688-3.9688 4.5139 4.5139 38.441 0 0-5-3.9688h-80.99a3.9688 3.9688 135 0 0-3.9688 3.9688 4.5139 4.5139 38.441 0 0 5 3.9688z" fill="#212121" fill-opacity=".92145"/><g transform="matrix(.26458 0 0 .26458 -25.077 -63.965)" style="shape-inside:url(#rect6851);white-space:pre" aria-label="F"><path d="m813.38 965.68h408.33l11 150h-24q-9.3334-68.333-41.333-93-29.667-23-86.333-23h-98.333q-29.667 0-41 10.333-12.333 11-12.333 39.333v142.67h80q48.667 0 68.667-18 18.667-17 19.333-58.333h24v195h-24q-1.6667-50.333-23-68-20.667-16.667-65-16.667h-80v179.67q0 32.333 12 42 11.667 9.3333 59.667 12v24.667h-187.67v-24.667q47-2.6667 58.333-14 9.3333-9 9.3333-40v-361.67q0-32-10.333-41-12.333-10.667-57.333-13z"/></g></svg>
