<?xml version="1.0" encoding="UTF-8"?>
<svg width="500mm" height="500mm" version="1.1" viewBox="0 0 500 500" xmlns="http://www.w3.org/2000/svg" xmlns:xlink="http://www.w3.org/1999/xlink"><defs><linearGradient id="linearGradient1418" x1="233.46" x2="235.73" y1=".10183" y2="499.78" gradientUnits="userSpaceOnUse"><stop stop-color="#c3c3c3" offset="0"/><stop stop-color="#d4d4d4" offset=".51682"/><stop stop-color="#c1c1c1" stop-opacity=".99496" offset="1"/></linearGradient></defs><path d="m137.58 36.167v425.08a15 15 45 0 0 15 15h181.67a15 15 135 0 0 15-15v-425.08a15 15 45 0 0-15-15l-181.67-6e-6a15 15 135 0 0-15 15z" fill="url(#linearGradient1418)"/><path d="m148.17 47.625v396.87h190.5v-396.87z" fill-opacity=".92145"/><path d="m200.79 39.688h80.99a3.9688 3.9688 135 0 0 3.9688-3.9688 4.5139 4.5139 38.441 0 0-5-3.9688h-80.99a3.9688 3.9688 135 0 0-3.9688 3.9688 4.5139 4.5139 38.441 0 0 5 3.9688z" fill="#212121" fill-opacity=".92145"/><g transform="matrix(.26458 0 0 .26458 -25.077 -63.965)" fill="#a2a2a2" style="shape-inside:url(#rect6851);white-space:pre" aria-label="F"><path d="m813.38 965.68h408.33l11 150h-24q-9.3334-68.333-41.333-93-29.667-23-86.333-23h-98.333q-29.667 0-41 10.333-12.333 11-12.333 39.333v142.67h80q48.667 0 68.667-18 18.667-17 19.333-58.333h24v195h-24q-1.6667-50.333-23-68-20.667-16.667-65-16.667h-80v179.67q0 32.333 12 42 11.667 9.3333 59.667 12v24.667h-187.67v-24.667q47-2.6667 58.333-14 9.3333-9 9.3333-40v-361.67q0-32-10.333-41-12.333-10.667-57.333-13z" fill="#909090"/></g></svg>
